# xmcd CD database file
#
# Track frame offsets:
#	183
#	22698
#	45813
#	60988
#	95263
#	116038
#	142088
#	166298
#	210925
#	231465
#	256275
#	294338
#
# Disc length: 4241 seconds
#
# Revision: 0
# Processed by: cddbd v1.5.1PL0 Copyright (c) Steve Scherf et al.
# Submitted via: CDex 1.51
#
DISCID=96108f0c
DTITLE=Prince - Live Sexy M.F. disc1
DYEAR=1993
DGENRE=R&B
TTITLE0=My Name Is Prince
TTITLE1=Sexy M.F.
TTITLE2=Damn U
TTITLE3=The MAX
TTITLE4=The Morning Papers
TTITLE5=She's A Bitch
TTITLE6=Blue Light
TTITLE7=The Continental
TTITLE8=The Flow
TTITLE9=Funny File
TTITLE10=I Wanna Melt With U/Sweet Baby/And God Created Woman
TTITLE11=Instrumental Pause
EXTD=YEAR: 1993
EXTT0=
EXTT1=
EXTT2=
EXTT3=
EXTT4=
EXTT5=
EXTT6=
EXTT7=
EXTT8=
EXTT9=
EXTT10=
EXTT11=
PLAYORDER=
